<svg xmlns="http://www.w3.org/2000/svg" version="1.1" xmlns:xlink="http://www.w3.org/1999/xlink" xmlns:svgjs="http://svgjs.dev/svgjs" width="1000" height="625" viewBox="0 0 1000 625"><g transform="matrix(1,0,0,1,0.6289325277169269,0.2530364372469762)"><svg viewBox="0 0 395 247" data-background-color="#ffffff" preserveAspectRatio="xMidYMid meet" height="625" width="1000" xmlns="http://www.w3.org/2000/svg" xmlns:xlink="http://www.w3.org/1999/xlink"><g id="tight-bounds" transform="matrix(1,0,0,1,-0.2484283484481864,-0.09999999999999432)"><svg viewBox="0 0 395.4968566968964 247.2" height="247.2" width="395.4968566968964"><g><svg viewBox="0 0 397.4975999999999 248.45053773791744" height="247.2" width="395.4968566968964"><g><rect width="397.4975999999999" height="4.581009435142932" x="0" y="133.42952698331638" fill="#6ee2f5" opacity="1" stroke-width="0" stroke="transparent" fill-opacity="1" class="rect-r$-0" data-fill-palette-color="primary" rx="1%" id="r$-0" data-palette-color="#6ee2f5"></rect></g><g><rect width="397.4975999999999" height="4.581009435142932" x="0" y="144.00662206655215" fill="#6ee2f5" opacity="1" stroke-width="0" stroke="transparent" fill-opacity="1" class="rect-r$-1" data-fill-palette-color="primary" rx="1%" id="r$-1" data-palette-color="#6ee2f5"></rect></g><g transform="matrix(1,0,0,1,0.9887999999999693,160.57980279788077)"><svg viewBox="0 0 395.52 87.87073494003668" height="87.87073494003668" width="395.52"><g id="textblocktransform"><svg viewBox="0 0 395.52 87.87073494003668" height="87.87073494003668" width="395.52" id="textblock"><g><svg viewBox="0 0 395.52 50.79792649903288" height="50.79792649903288" width="395.52"><g transform="matrix(1,0,0,1,0,0)"><svg width="395.52" viewBox="4 -33.2 258.48 33.2" height="50.79792649903288" data-palette-color="#6ee2f5"><path d="M11.1 0L4.5 0 4.5-25.4 4-29.45 26.15-29.45Q29.35-29.45 31.18-28.6 33-27.75 33.88-26.38 34.75-25 35-23.45 35.25-21.9 35.25-20.5L35.25-20.5 35.25-17.55Q35.25-16.4 34.9-14.98 34.55-13.55 33.6-12.23 32.65-10.9 30.85-10.03 29.05-9.15 26.15-9.15L26.15-9.15 21.05-9.15Q17.9-9.15 15.18-9.3 12.45-9.45 11.1-9.55L11.1-9.55 11.1 0ZM11.1-24.65L11.1-13.95 24.7-13.95Q26.95-13.95 27.8-15.05 28.65-16.15 28.65-17.7L28.65-17.7 28.65-20.85Q28.65-22.45 27.8-23.55 26.95-24.65 24.75-24.65L24.75-24.65 11.1-24.65ZM65.45 0L42.75 0 42.75-25.4 42.25-29.4 65.45-29.4Q69.5-29.4 71.67-28.4 73.85-27.4 74.7-25.43 75.55-23.45 75.55-20.5L75.55-20.5 75.55-8.95Q75.55-5.95 74.72-3.98 73.9-2 71.72-1 69.55 0 65.45 0L65.45 0ZM49.35-24.6L49.35-4.8 65.05-4.8Q68.9-4.8 68.95-8.35L68.95-8.35 68.95-21.1Q68.95-22.55 68.1-23.58 67.25-24.6 65.05-24.6L65.05-24.6 49.35-24.6ZM89.65 0L83.05 0 83.05-25.4 82.55-29.4 113.75-29.4 113.75-24.6 89.65-24.6 89.65-17.3 108.35-17.3 108.35-12.35 89.65-12.35 89.65 0ZM135.94 0L129.84 0 129.84-18.1 126.74-18.1 126.74-22.35 129.84-22.35 129.84-26.8Q129.84-28.5 130.52-29.95 131.19-31.4 132.77-32.3 134.34-33.2 136.94-33.2L136.94-33.2 139.44-33.2Q145.44-33.2 148.07-32.65 150.69-32.1 150.69-31.7L150.69-31.7 149.19-27.9Q148.34-28.25 146.14-28.58 143.94-28.9 140.84-28.9L140.84-28.9 138.34-28.9Q137.09-28.9 136.52-28.45 135.94-28 135.94-26.9L135.94-26.9 135.94-22.35 146.34-22.35 146.34-18.1 135.94-18.1 135.94 0ZM157.64 0L155.14 0Q151.34 0 149.64-1.78 147.94-3.55 147.94-6.65L147.94-6.65Q147.94-9.9 149.71-11.65 151.49-13.4 155.14-13.4L155.14-13.4 157.69-13.4Q161.44-13.4 164.44-13.2 167.44-13 169.39-12.8L169.39-12.8 169.39-16.1Q169.39-16.55 169.29-17.03 169.19-17.5 168.69-17.8 168.19-18.1 166.99-18.1L166.99-18.1 164.49-18.1Q159.04-18.1 155.39-17.93 151.74-17.75 150.44-17.6L150.44-17.6 149.89-21.4Q149.89-22.1 153.69-22.25 157.49-22.4 166.39-22.4L166.39-22.4 168.89-22.4Q171.39-22.4 172.74-21.7 174.09-21 174.66-19.95 175.24-18.9 175.36-17.82 175.49-16.75 175.49-16L175.49-16 175.49 0 171.39 0 169.44-1Q167.34-0.65 164.39-0.33 161.44 0 157.64 0L157.64 0ZM156.44-4.3L156.44-4.3 167.89-4.3Q168.99-4.3 169.19-4.5 169.39-4.7 169.39-5.75L169.39-5.75 169.39-9.6 156.44-9.6Q155.09-9.6 154.56-8.95 154.04-8.3 154.04-6.9L154.04-6.9Q154.04-5.5 154.64-4.9 155.24-4.3 156.44-4.3ZM197.39 0L187.34 0Q184.84 0 183.49-0.65 182.14-1.3 181.56-2.3 180.99-3.3 180.86-4.4 180.74-5.5 180.74-6.4L180.74-6.4 180.74-16Q180.74-16.75 180.86-17.82 180.99-18.9 181.56-19.95 182.14-21 183.51-21.7 184.89-22.4 187.34-22.4L187.34-22.4 194.29-22.4Q200.54-22.4 203.16-22.08 205.79-21.75 205.79-21.4L205.79-21.4 204.79-17.6Q203.39-17.7 201.24-17.82 199.09-17.95 196.61-18.03 194.14-18.1 191.79-18.1L191.79-18.1 189.24-18.1Q186.84-18.1 186.84-16.1L186.84-16.1 186.84-6.3Q186.79-4.3 189.24-4.3L189.24-4.3 191.79-4.3Q194.49-4.3 197.06-4.38 199.64-4.45 201.79-4.58 203.94-4.7 205.24-4.8L205.24-4.8 207.24-1.55Q207.24 0 197.39 0L197.39 0ZM214.28-25.55L214.28-25.55Q212.43-25.55 211.58-26.3 210.73-27.05 210.73-28.8L210.73-28.8Q210.73-30.6 211.56-31.33 212.38-32.05 214.28-32.05L214.28-32.05Q216.18-32.05 217.03-31.33 217.88-30.6 217.88-28.8L217.88-28.8Q217.88-27.1 217.03-26.33 216.18-25.55 214.28-25.55ZM217.33 0L211.23 0 211.23-22.4 217.33-22.4 217.33 0ZM230.48 0L224.38 0 224.38-27.7 223.88-31.7 230.48-31.7 230.48 0ZM252.63 0L242.58 0Q240.08 0 238.73-0.65 237.38-1.3 236.8-2.3 236.23-3.3 236.1-4.4 235.98-5.5 235.98-6.4L235.98-6.4 235.98-16Q235.98-16.75 236.1-17.82 236.23-18.9 236.8-19.95 237.38-21 238.75-21.7 240.13-22.4 242.58-22.4L242.58-22.4 253.33-22.4Q256.63-22.4 258.5-21.78 260.38-21.15 261.15-19.75 261.93-18.35 261.93-16L261.93-16 261.93-8.6 253.18-8.6Q248.68-8.6 245.85-8.8 243.03-9 242.08-9.05L242.08-9.05 242.08-6.3Q242.03-4.3 244.48-4.3L244.48-4.3 247.03-4.3Q249.73-4.3 252.3-4.38 254.88-4.45 257.03-4.58 259.18-4.7 260.48-4.8L260.48-4.8 262.48-1.55Q262.48 0 252.63 0L252.63 0ZM242.08-16.1L242.08-12.9 255.83-12.9 255.83-16.1Q255.83-17.1 255.6-17.5 255.38-17.9 254.28-18 253.18-18.1 250.53-18.1L250.53-18.1 244.48-18.1Q242.08-18.1 242.08-16.1L242.08-16.1Z" opacity="1" transform="matrix(1,0,0,1,0,0)" fill="#6ee2f5" class="wordmark-text-0" data-fill-palette-color="primary" id="text-0"></path></svg></g></svg></g><g transform="matrix(1,0,0,1,75.54432,62.79009779521857)"><svg viewBox="0 0 244.43135999999998 25.080637144818116" height="25.080637144818116" width="244.43135999999998"><g transform="matrix(1,0,0,1,0,0)"><svg width="244.43135999999998" viewBox="4.65 -35.2 437.04 44.85" height="25.080637144818116" data-palette-color="#6ee2f5"><path d="M14.3-28.7L8.7-28.6 8.6-17.45 14-17.35 19.2-17.5 19.5-17.1 19.15-14.05 13.6-14.2 8.55-14.15 8.5-10 8.7 0 4.65 0 4.9-9.65 4.65-32.05 21.7-32.05 22-31.65 21.65-28.45 14.3-28.7ZM31.8-23.3Q35.05-23.3 36.92-21.7 38.8-20.1 38.8-17.3L38.8-17.3Q38.8-16.45 38.5-11.15L38.5-11.15Q38.2-5.85 38.2-4.95L38.2-4.95Q38.2-3.85 38.55-3.43 38.9-3 39.75-3L39.75-3Q40.5-3 41.45-3.3L41.45-3.3 41.85-2.95 41.45-0.7Q40 0.15 38.6 0.3L38.6 0.3Q37.05 0.15 36.12-0.8 35.2-1.75 35.15-3.4L35.15-3.4 34.8-3.4Q32.1-0.65 29.45 0.35L29.45 0.35Q26.1 0.35 24.22-1.33 22.35-3 22.35-5.9L22.35-5.9Q22.35-8.1 23.52-9.4 24.7-10.7 27-11.25L27-11.25 35.1-13.15 35.15-16.4Q35.15-18.35 34.12-19.4 33.1-20.45 31.2-20.45L31.2-20.45Q29.5-20.45 27.8-19.65 26.1-18.85 24.15-17.15L24.15-17.15 23.75-17.35 23.25-20.2Q27.4-23.3 31.8-23.3L31.8-23.3ZM35.05-10.6L27.8-8.85Q26.8-8.55 26.35-8.03 25.9-7.5 25.9-6.45L25.9-6.45Q25.9-4.8 26.82-3.88 27.75-2.95 29.3-2.95L29.3-2.95Q32.05-2.95 34.9-6.5L34.9-6.5 35.05-10.6ZM55.55-23.3Q57.1-23.3 58.77-22.93 60.45-22.55 61.7-21.95L61.7-21.95 61-18.5 60.55-18.35Q57.95-20.05 55.4-20.05L55.4-20.05Q52.45-20.05 50.8-17.8 49.15-15.55 49.15-11.5L49.15-11.5Q49.15-7.45 50.87-5.13 52.6-2.8 55.65-2.8L55.65-2.8Q57-2.8 58.47-3.25 59.95-3.7 61.25-4.5L61.25-4.5 61.7-4.25 61.25-0.9Q58.2 0.4 55.15 0.4L55.15 0.4Q50.6 0.4 48-2.73 45.4-5.85 45.4-11.3L45.4-11.3Q45.4-16.85 48.12-20.08 50.85-23.3 55.55-23.3L55.55-23.3ZM66.59 0L66.79-9.7 66.64-22.65 70.49-23 70.39-10.05 70.49 0 66.59 0ZM68.64-33.15Q69.64-33.15 70.24-32.55 70.84-31.95 70.84-30.9L70.84-30.9Q70.84-29.8 70.22-29.15 69.59-28.5 68.49-28.5L68.49-28.5Q67.44-28.5 66.87-29.1 66.29-29.7 66.29-30.8L66.29-30.8Q66.29-31.85 66.92-32.5 67.54-33.15 68.64-33.15L68.64-33.15ZM82.84-35.1L82.54-10.05 82.79 0 78.84 0 79.14-9.75 78.89-34.75 82.84-35.1ZM91.04 0L91.24-9.7 91.09-22.65 94.94-23 94.84-10.05 94.94 0 91.04 0ZM93.09-33.15Q94.09-33.15 94.69-32.55 95.29-31.95 95.29-30.9L95.29-30.9Q95.29-29.8 94.66-29.15 94.04-28.5 92.94-28.5L92.94-28.5Q91.89-28.5 91.31-29.1 90.74-29.7 90.74-30.8L90.74-30.8Q90.74-31.85 91.36-32.5 91.99-33.15 93.09-33.15L93.09-33.15ZM110.29-3.05Q111.94-3.05 113.89-4.05L113.89-4.05 114.34-3.75 113.94-1.15Q111.24 0.1 108.94 0.3L108.94 0.3Q106.09-0.25 104.84-1.8 103.59-3.35 103.59-6.3L103.59-6.3 103.74-9.85 103.69-20.2 100.54-20.2 100.34-20.5 100.59-22.85 103.64-22.85 103.64-26.55 107.09-28.05 107.49-27.7 107.39-22.85 114.19-22.85 114.39-22.55 114.14-20.2 107.39-20.2 107.14-6.65Q107.09-4.65 107.84-3.85 108.59-3.05 110.29-3.05L110.29-3.05ZM134.48-11.65L120.13-11.6 120.13-11.5Q120.13-7.3 122.03-5.05 123.93-2.8 127.43-2.8L127.43-2.8Q129.18-2.8 130.93-3.38 132.68-3.95 134.13-5L134.13-5 134.53-4.7 133.93-1.3Q130.43 0.4 126.93 0.4L126.93 0.4Q122.03 0.4 119.23-2.73 116.43-5.85 116.43-11.3L116.43-11.3Q116.43-16.8 119.23-20.05 122.03-23.3 126.78-23.3L126.78-23.3Q130.78-23.3 132.98-21.03 135.18-18.75 135.18-14.7L135.18-14.7Q135.18-13.35 134.98-12.15L134.98-12.15 134.48-11.65ZM126.78-20.5Q124.28-20.5 122.61-18.88 120.93-17.25 120.38-14.3L120.38-14.3 131.43-14.5 131.53-15.2Q131.53-17.75 130.31-19.13 129.08-20.5 126.78-20.5L126.78-20.5ZM151.88-22.95Q152.48-22.95 153.18-22.85L153.18-22.85 153.18-19 152.73-18.85Q151.88-19.1 150.88-19.1L150.88-19.1Q149.23-19.1 147.86-17.78 146.48-16.45 145.13-13.55L145.13-13.55 145.08-10.05 145.33 0 141.38 0 141.63-9.7 141.43-22.65 145.18-23 145.13-18.3 145.43-18.3Q146.83-20.8 148.53-21.88 150.23-22.95 151.88-22.95L151.88-22.95ZM166.48-23.05L167.13-20 172.08-3.95 172.38-3.95 178.18-19.8 178.98-22.9 182.53-22.9 174.13 0 169.88 0 162.78-22.8 166.48-23.05ZM194.77-23.3Q199.42-23.3 202-20.28 204.57-17.25 204.57-11.75L204.57-11.75Q204.57-5.95 201.87-2.78 199.17 0.4 194.17 0.4L194.17 0.4Q189.47 0.4 186.9-2.63 184.32-5.65 184.32-11.15L184.32-11.15Q184.32-16.95 187.05-20.13 189.77-23.3 194.77-23.3L194.77-23.3ZM194.52-20.5Q191.37-20.5 189.72-18.35 188.07-16.2 188.07-12.05L188.07-12.05Q188.07-7.25 189.7-4.85 191.32-2.45 194.42-2.45L194.42-2.45Q197.57-2.45 199.22-4.55 200.87-6.65 200.87-10.85L200.87-10.85Q200.87-15.6 199.25-18.05 197.62-20.5 194.52-20.5L194.52-20.5ZM217.97-3.05Q219.62-3.05 221.57-4.05L221.57-4.05 222.02-3.75 221.62-1.15Q218.92 0.1 216.62 0.3L216.62 0.3Q213.77-0.25 212.52-1.8 211.27-3.35 211.27-6.3L211.27-6.3 211.42-9.85 211.37-20.2 208.22-20.2 208.02-20.5 208.27-22.85 211.32-22.85 211.32-26.55 214.77-28.05 215.17-27.7 215.07-22.85 221.87-22.85 222.07-22.55 221.82-20.2 215.07-20.2 214.82-6.65Q214.77-4.65 215.52-3.85 216.27-3.05 217.97-3.05L217.97-3.05ZM237.22-22.95Q237.82-22.95 238.52-22.85L238.52-22.85 238.52-19 238.07-18.85Q237.22-19.1 236.22-19.1L236.22-19.1Q234.57-19.1 233.19-17.78 231.82-16.45 230.47-13.55L230.47-13.55 230.42-10.05 230.67 0 226.72 0 226.97-9.7 226.77-22.65 230.52-23 230.47-18.3 230.77-18.3Q232.17-20.8 233.87-21.88 235.57-22.95 237.22-22.95L237.22-22.95ZM258.97-11.65L244.62-11.6 244.62-11.5Q244.62-7.3 246.52-5.05 248.42-2.8 251.92-2.8L251.92-2.8Q253.67-2.8 255.42-3.38 257.17-3.95 258.62-5L258.62-5 259.02-4.7 258.42-1.3Q254.92 0.4 251.42 0.4L251.42 0.4Q246.52 0.4 243.72-2.73 240.92-5.85 240.92-11.3L240.92-11.3Q240.92-16.8 243.72-20.05 246.52-23.3 251.27-23.3L251.27-23.3Q255.27-23.3 257.47-21.03 259.67-18.75 259.67-14.7L259.67-14.7Q259.67-13.35 259.47-12.15L259.47-12.15 258.97-11.65ZM251.27-20.5Q248.77-20.5 247.09-18.88 245.42-17.25 244.87-14.3L244.87-14.3 255.92-14.5 256.02-15.2Q256.02-17.75 254.79-19.13 253.57-20.5 251.27-20.5L251.27-20.5ZM282.36-23.3Q283.91-23.3 285.59-22.93 287.26-22.55 288.51-21.95L288.51-21.95 287.81-18.5 287.36-18.35Q284.76-20.05 282.21-20.05L282.21-20.05Q279.26-20.05 277.61-17.8 275.96-15.55 275.96-11.5L275.96-11.5Q275.96-7.45 277.69-5.13 279.41-2.8 282.46-2.8L282.46-2.8Q283.81-2.8 285.29-3.25 286.76-3.7 288.06-4.5L288.06-4.5 288.51-4.25 288.06-0.9Q285.01 0.4 281.96 0.4L281.96 0.4Q277.41 0.4 274.81-2.73 272.21-5.85 272.21-11.3L272.21-11.3Q272.21-16.85 274.94-20.08 277.66-23.3 282.36-23.3L282.36-23.3ZM307.76 0L308.01-15.55Q308.06-17.6 307.06-18.75 306.06-19.9 304.11-19.9L304.11-19.9Q300.81-19.9 297.36-16.35L297.36-16.35 297.26-10.05 297.51 0 293.56 0 293.86-9.75 293.61-34.75 297.56-35.1 297.36-19.65 297.66-19.65Q300.76-22.4 304.01-23.2L304.01-23.2Q307.81-23.2 309.76-21.45 311.71-19.7 311.66-16.45L311.66-16.45 311.56-9.95 311.76 0 307.76 0ZM319.41 0L319.61-9.7 319.46-22.65 323.31-23 323.21-10.05 323.31 0 319.41 0ZM321.46-33.15Q322.46-33.15 323.06-32.55 323.66-31.95 323.66-30.9L323.66-30.9Q323.66-29.8 323.03-29.15 322.41-28.5 321.31-28.5L321.31-28.5Q320.26-28.5 319.68-29.1 319.11-29.7 319.11-30.8L319.11-30.8Q319.11-31.85 319.73-32.5 320.36-33.15 321.46-33.15L321.46-33.15ZM341.05-35.2Q342.85-35.2 344.95-34.75L344.95-34.75 344.65-31.65 344.35-31.4Q342.55-32.3 340.7-32.3L340.7-32.3Q338.75-32.3 337.7-31.08 336.65-29.85 336.6-27.45L336.6-27.45 336.55-22.85 342.55-22.85 342.7-22.55 342.45-20.2 336.5-20.2 336.4-10.05 336.65 0 332.7 0 333-9.75 332.9-20.2 329.45-20.2 329.25-20.5 329.5-22.85 332.9-22.85 332.85-26.85Q332.8-30.9 334.95-33.05 337.1-35.2 341.05-35.2L341.05-35.2ZM356.2-35.2Q358-35.2 360.1-34.75L360.1-34.75 359.8-31.65 359.5-31.4Q357.7-32.3 355.85-32.3L355.85-32.3Q353.9-32.3 352.85-31.08 351.8-29.85 351.75-27.45L351.75-27.45 351.7-22.85 357.7-22.85 357.85-22.55 357.6-20.2 351.65-20.2 351.55-10.05 351.8 0 347.85 0 348.15-9.75 348.05-20.2 344.6-20.2 344.4-20.5 344.65-22.85 348.05-22.85 348-26.85Q347.95-30.9 350.1-33.05 352.25-35.2 356.2-35.2L356.2-35.2ZM372.25-22.95Q372.85-22.95 373.55-22.85L373.55-22.85 373.55-19 373.1-18.85Q372.25-19.1 371.25-19.1L371.25-19.1Q369.6-19.1 368.22-17.78 366.85-16.45 365.5-13.55L365.5-13.55 365.45-10.05 365.7 0 361.75 0 362-9.7 361.8-22.65 365.55-23 365.5-18.3 365.8-18.3Q367.2-20.8 368.9-21.88 370.6-22.95 372.25-22.95L372.25-22.95ZM384.95-23.3Q388.2-23.3 390.07-21.7 391.95-20.1 391.95-17.3L391.95-17.3Q391.95-16.45 391.65-11.15L391.65-11.15Q391.35-5.85 391.35-4.95L391.35-4.95Q391.35-3.85 391.7-3.43 392.05-3 392.9-3L392.9-3Q393.65-3 394.6-3.3L394.6-3.3 395-2.95 394.6-0.7Q393.15 0.15 391.75 0.3L391.75 0.3Q390.2 0.15 389.27-0.8 388.35-1.75 388.3-3.4L388.3-3.4 387.95-3.4Q385.25-0.65 382.6 0.35L382.6 0.35Q379.25 0.35 377.37-1.33 375.5-3 375.5-5.9L375.5-5.9Q375.5-8.1 376.67-9.4 377.85-10.7 380.15-11.25L380.15-11.25 388.25-13.15 388.3-16.4Q388.3-18.35 387.27-19.4 386.25-20.45 384.35-20.45L384.35-20.45Q382.65-20.45 380.95-19.65 379.25-18.85 377.3-17.15L377.3-17.15 376.9-17.35 376.4-20.2Q380.55-23.3 384.95-23.3L384.95-23.3ZM388.2-10.6L380.95-8.85Q379.95-8.55 379.5-8.03 379.05-7.5 379.05-6.45L379.05-6.45Q379.05-4.8 379.97-3.88 380.9-2.95 382.45-2.95L382.45-2.95Q385.2-2.95 388.05-6.5L388.05-6.5 388.2-10.6ZM420.74-20.95Q419.19-20.5 416.14-19.9L416.14-19.9 416.04-19.7Q417.14-17.95 417.14-15.45L417.14-15.45Q417.14-11.8 414.72-9.65 412.29-7.5 408.14-7.5L408.14-7.5Q406.49-7.5 405.04-7.9L405.04-7.9Q404.19-7.25 403.89-6.85 403.59-6.45 403.59-5.95L403.59-5.95Q403.59-4.9 404.89-4.48 406.19-4.05 409.14-3.6L409.14-3.6Q412.04-3.2 413.89-2.7 415.74-2.2 417.09-1.07 418.44 0.05 418.44 2.05L418.44 2.05Q418.44 4.15 417.02 5.9 415.59 7.65 413.12 8.65 410.64 9.65 407.69 9.65L407.69 9.65Q403.69 9.65 401.47 7.83 399.24 6 399.24 3.1L399.24 3.1Q400.44 0.7 403.64-1.25L403.64-1.25 403.64-1.5Q401.84-2.05 400.87-2.98 399.89-3.9 399.89-5.5L399.89-5.5Q400.94-7.25 402.94-8.55L402.94-8.55 402.94-8.75Q401.34-9.75 400.52-11.38 399.69-13 399.69-15.15L399.69-15.15Q399.69-18.9 402.12-21.03 404.54-23.15 408.59-23.15L408.59-23.15Q411.24-23.15 413.09-22.25L413.09-22.25Q416.54-22.9 420.34-23.95L420.34-23.95 420.74-23.65 420.74-20.95ZM408.34-10.2Q410.84-10.2 412.22-11.6 413.59-13 413.59-15.5L413.59-15.5Q413.59-17.9 412.29-19.2 410.99-20.5 408.54-20.5L408.54-20.5Q406.04-20.5 404.64-19.15 403.24-17.8 403.24-15.3L403.24-15.3Q403.24-12.9 404.57-11.55 405.89-10.2 408.34-10.2L408.34-10.2ZM414.94 2.8Q414.94 1.15 413.27 0.5 411.59-0.15 408.19-0.65L408.19-0.65 406.59-0.9Q404.69 0.25 403.72 1.3 402.74 2.35 402.74 3.5L402.74 3.5Q402.74 4.95 404.17 5.9 405.59 6.85 408.14 6.85L408.14 6.85Q411.04 6.85 412.99 5.68 414.94 4.5 414.94 2.8L414.94 2.8ZM440.99-11.65L426.64-11.6 426.64-11.5Q426.64-7.3 428.54-5.05 430.44-2.8 433.94-2.8L433.94-2.8Q435.69-2.8 437.44-3.38 439.19-3.95 440.64-5L440.64-5 441.04-4.7 440.44-1.3Q436.94 0.4 433.44 0.4L433.44 0.4Q428.54 0.4 425.74-2.73 422.94-5.85 422.94-11.3L422.94-11.3Q422.94-16.8 425.74-20.05 428.54-23.3 433.29-23.3L433.29-23.3Q437.29-23.3 439.49-21.03 441.69-18.75 441.69-14.7L441.69-14.7Q441.69-13.35 441.49-12.15L441.49-12.15 440.99-11.65ZM433.29-20.5Q430.79-20.5 429.12-18.88 427.44-17.25 426.89-14.3L426.89-14.3 437.94-14.5 438.04-15.2Q438.04-17.75 436.82-19.13 435.59-20.5 433.29-20.5L433.29-20.5Z" opacity="1" transform="matrix(1,0,0,1,0,0)" fill="#6ee2f5" class="slogan-text-1" data-fill-palette-color="secondary" id="text-1"></path></svg></g></svg></g></svg></g></svg></g><g transform="matrix(1,0,0,1,138.0301221564346,0)"><svg viewBox="0 0 121.4373556871307 121.4373556871307" height="121.4373556871307" width="121.4373556871307"><g><svg xmlns="http://www.w3.org/2000/svg" viewBox="0 0 32 32" x="0" y="0" height="121.4373556871307" width="121.4373556871307" class="icon-icon-0" data-fill-palette-color="accent" id="icon-0"></svg></g></svg></g><g></g></svg></g><defs></defs><mask id="450f3c7b-c96c-40d9-abe3-9b07234d59f7"><g id="SvgjsG1026"><svg viewBox="0 0 395.4968566968964 247.2" height="247.2" width="395.4968566968964"><g><svg viewBox="0 0 397.4975999999999 248.45053773791744" height="247.2" width="395.4968566968964"><g></g><g></g><g transform="matrix(1,0,0,1,0.9887999999999693,160.57980279788077)"><svg viewBox="0 0 395.52 87.87073494003668" height="87.87073494003668" width="395.52"><g id="SvgjsG1023"><svg viewBox="0 0 395.52 87.87073494003668" height="87.87073494003668" width="395.52" id="SvgjsSvg1022"><g><svg viewBox="0 0 395.52 50.79792649903288" height="50.79792649903288" width="395.52"><g transform="matrix(1,0,0,1,0,0)"><svg width="395.52" viewBox="4 -33.2 258.48 33.2" height="50.79792649903288" data-palette-color="#6ee2f5"></svg></g></svg></g><g transform="matrix(1,0,0,1,75.54432,62.79009779521857)"><svg viewBox="0 0 244.43135999999998 25.080637144818116" height="25.080637144818116" width="244.43135999999998"><g transform="matrix(1,0,0,1,0,0)"><svg width="244.43135999999998" viewBox="4.65 -35.2 437.04 44.85" height="25.080637144818116" data-palette-color="#6ee2f5"></svg></g></svg></g></svg></g></svg></g><g transform="matrix(1,0,0,1,138.0301221564346,0)"><svg viewBox="0 0 121.4373556871307 121.4373556871307" height="121.4373556871307" width="121.4373556871307"><g><svg xmlns="http://www.w3.org/2000/svg" viewBox="0 0 32 32" x="0" y="0" height="121.4373556871307" width="121.4373556871307" class="icon-icon-0" data-fill-palette-color="accent" id="SvgjsSvg1019"><g data-name="16-scan" fill="white"><path d="M31 17H1a1 1 0 0 1 0-2H31a1 1 0 0 1 0 2Z" fill="white"></path><path d="M1 12a1 1 0 0 1-1-1V1A1 1 0 0 1 1 0H11a1 1 0 0 1 0 2H2v9A1 1 0 0 1 1 12Z" fill="white"></path><path d="M31 12a1 1 0 0 1-1-1V2H21a1 1 0 0 1 0-2H31a1 1 0 0 1 1 1V11A1 1 0 0 1 31 12Z" fill="white"></path><path d="M31 32H21a1 1 0 0 1 0-2h9V21a1 1 0 0 1 2 0V31A1 1 0 0 1 31 32Z" fill="white"></path><path d="M11 32H1a1 1 0 0 1-1-1V21a1 1 0 0 1 2 0v9h9a1 1 0 0 1 0 2Z" fill="white"></path></g></svg></g></svg></g><g></g></svg></g><defs><mask></mask></defs></svg></g></mask><linearGradient x1="0" x2="1" y1="0.578" y2="0.595" id="23a15b2b-4675-4646-a61b-ba7f34651efb"><stop stop-color="#6ee2f5" offset="0"></stop><stop stop-color="#6454f0" offset="1"></stop></linearGradient><rect width="395.4968566968964" height="247.20000000000002" fill="url(#23a15b2b-4675-4646-a61b-ba7f34651efb)" mask="url(#450f3c7b-c96c-40d9-abe3-9b07234d59f7)" data-fill-palette-color="accent"></rect></svg><rect width="395.4968566968964" height="247.2" fill="none" stroke="none" visibility="hidden"></rect></g></svg></g></svg>